{
	"asset":{
		"generator":"Khronos glTF Blender I/O v3.6.27",
		"version":"2.0"
	},
	"extensionsUsed":[
		"KHR_materials_transmission",
		"KHR_materials_ior"
	],
	"scene":0,
	"scenes":[
		{
			"name":"Scene",
			"nodes":[
				0,
				1
			]
		}
	],
	"nodes":[
		{
			"mesh":0,
			"name":"Roundcube",
			"rotation":[
				0.7071068286895752,
				0,
				0,
				0.7071068286895752
			],
			"scale":[
				0.009999999776482582,
				0.009999999776482582,
				0.009999999776482582
			]
		},
		{
			"mesh":1,
			"name":"Roundcube.001",
			"rotation":[
				0.7071068286895752,
				0,
				0,
				0.7071068286895752
			],
			"scale":[
				0.009999999776482582,
				0.009999999776482582,
				0.009999999776482582
			]
		}
	],
	"materials":[
		{
			"doubleSided":true,
			"name":"Material.003",
			"pbrMetallicRoughness":{
				"baseColorFactor":[
					0.0024281940422952175,
					0.005605380050837994,
					0.02842603623867035,
					1
				],
				"metallicFactor":0.2261904776096344,
				"roughnessFactor":0.2738095223903656
			}
		},
		{
			"doubleSided":true,
			"emissiveFactor":[
				0.00807600375264883,
				0.00807600375264883,
				0.00807600375264883
			],
			"extensions":{
				"KHR_materials_transmission":{
					"transmissionFactor":0.5
				},
				"KHR_materials_ior":{
					"ior":1.4500000476837158
				}
			},
			"name":"Material.004",
			"pbrMetallicRoughness":{
				"baseColorFactor":[
					0.006703116465359926,
					0.1666494607925415,
					0.4769945740699768,
					1
				],
				"metallicFactor":0.2023809552192688,
				"roughnessFactor":0.25
			}
		}
	],
	"meshes":[
		{
			"name":"Mesh",
			"primitives":[
				{
					"attributes":{
						"POSITION":0,
						"NORMAL":1
					},
					"indices":2,
					"material":0
				}
			]
		},
		{
			"name":"Mesh.001",
			"primitives":[
				{
					"attributes":{
						"POSITION":3,
						"NORMAL":4
					},
					"indices":5,
					"material":1
				}
			]
		}
	],
	"accessors":[
		{
			"bufferView":0,
			"componentType":5126,
			"count":762,
			"max":[
				259.5703430175781,
				105.06517791748047,
				105.06517791748047
			],
			"min":[
				6.715813636779785,
				-105.06517791748047,
				-105.06517791748047
			],
			"type":"VEC3"
		},
		{
			"bufferView":1,
			"componentType":5126,
			"count":762,
			"type":"VEC3"
		},
		{
			"bufferView":2,
			"componentType":5123,
			"count":4320,
			"type":"SCALAR"
		},
		{
			"bufferView":3,
			"componentType":5126,
			"count":762,
			"max":[
				7.440764904022217,
				106.36213684082031,
				106.26526641845703
			],
			"min":[
				-254.74658203125,
				-106.36213684082031,
				-107.03125
			],
			"type":"VEC3"
		},
		{
			"bufferView":4,
			"componentType":5126,
			"count":762,
			"type":"VEC3"
		},
		{
			"bufferView":5,
			"componentType":5123,
			"count":4320,
			"type":"SCALAR"
		}
	],
	"bufferViews":[
		{
			"buffer":0,
			"byteLength":9144,
			"byteOffset":0,
			"target":34962
		},
		{
			"buffer":0,
			"byteLength":9144,
			"byteOffset":9144,
			"target":34962
		},
		{
			"buffer":0,
			"byteLength":8640,
			"byteOffset":18288,
			"target":34963
		},
		{
			"buffer":0,
			"byteLength":9144,
			"byteOffset":26928,
			"target":34962
		},
		{
			"buffer":0,
			"byteLength":9144,
			"byteOffset":36072,
			"target":34962
		},
		{
			"buffer":0,
			"byteLength":8640,
			"byteOffset":45216,
			"target":34963
		}
	],
	"buffers":[
		{
			"byteLength":53856,
			"uri":"data:application/octet-stream;base64,"
		}
	]
}
