<svg width="49" height="50" viewBox="0 0 49 50" fill="none" xmlns="http://www.w3.org/2000/svg">
<g id="Group 214">
<path id="Vector" d="M18.637 23.4425H16.7702C14.5753 23.4425 12.7943 25.2234 12.7943 27.4183V36.7212H7.45159C5.67068 36.7212 4.04598 37.7757 3.32736 39.4004L0.570069 45.6024C-0.132925 47.1802 0.577879 49.0236 2.15571 49.7266C2.56969 49.9063 2.9993 50 3.4211 50C4.61619 50 5.76441 49.3048 6.27994 48.141L8.57638 42.9701H12.7943C16.239 42.9701 19.0432 40.1659 19.0432 36.7212V29.6835C22.9565 29.4726 26.0731 26.2232 26.0731 22.2552C26.0731 20.1306 25.1592 18.1075 23.5736 16.6937C20.3632 13.8427 18.0434 10.1559 16.8639 6.02385L15.7938 2.26674C15.3173 0.610799 13.5911 -0.349959 11.9273 0.118703C10.2636 0.587365 9.31062 2.32142 9.77928 3.98517L10.8494 7.74228C12.3569 13.0147 15.3173 17.7248 19.4103 21.3647C19.6602 21.5912 19.8087 21.9115 19.8087 22.2552C19.8087 22.9113 19.2775 23.4425 18.6214 23.4425H18.637Z" fill="#43CDE8"/>
<path id="Vector_2" d="M33.4785 30.8709C32.26 29.6524 30.2838 29.6524 29.0574 30.8709C27.8311 32.0894 27.8389 34.0656 29.0574 35.292C29.6511 35.8856 29.9713 36.6667 29.9713 37.5025C29.9713 38.3383 29.6433 39.1194 29.0574 39.713C27.8389 40.9315 27.8389 42.9077 29.0574 44.1341C29.6667 44.7433 30.4634 45.048 31.268 45.048C32.0725 45.048 32.8692 44.7433 33.4785 44.1341C35.2516 42.361 36.228 40.0098 36.228 37.5025C36.228 34.9952 35.2516 32.644 33.4785 30.8709Z" fill="#43CDE8"/>
<path id="Vector_3" d="M41.4982 49.5779C41.9903 49.8669 42.5293 49.9997 43.0604 49.9997C44.1383 49.9997 45.185 49.4373 45.7708 48.4375C49.6764 41.6887 49.6764 33.3075 45.7708 26.5588C44.9038 25.0668 42.9979 24.5513 41.4982 25.4183C40.0063 26.2854 39.4986 28.1913 40.3578 29.691C43.1463 34.5104 43.1463 40.4936 40.3578 45.3052C39.4908 46.7972 40.0063 48.7109 41.4982 49.5779Z" fill="#43CDE8"/>
</g>
</svg>
