<svg width="94" height="68" viewBox="0 0 94 68" fill="none" xmlns="http://www.w3.org/2000/svg">
<g id="Mask group">
<mask id="mask0_977_6822" style="mask-type:alpha" maskUnits="userSpaceOnUse" x="0" y="0" width="94" height="68">
<g id="Group 100">
<g id="Group 88">
<g id="05 Smart Glasses">
<path id="Vector" d="M68.0993 59.4307C68.4513 59.4307 68.789 59.2907 69.0379 59.0418L71.693 56.3866C71.9349 56.1362 72.0687 55.8009 72.0657 55.4528C72.0626 55.1047 71.923 54.7717 71.6769 54.5256C71.4307 54.2794 71.0977 54.1398 70.7497 54.1368C70.4016 54.1337 70.0662 54.2676 69.8158 54.5094L67.1607 57.1646C66.9751 57.3502 66.8487 57.5867 66.7975 57.8442C66.7463 58.1017 66.7726 58.3686 66.873 58.6112C66.9735 58.8537 67.1436 59.061 67.3619 59.2069C67.5801 59.3528 67.8367 59.4307 68.0993 59.4307Z" fill="white"/>
<path id="Vector_2" d="M71.1441 61.6969C71.393 61.9458 71.7306 62.0856 72.0827 62.0856C72.4347 62.0856 72.7723 61.9458 73.0213 61.6969L78.3316 56.3866C78.5734 56.1362 78.7072 55.8009 78.7042 55.4528C78.7012 55.1047 78.5616 54.7717 78.3154 54.5256C78.0693 54.2794 77.7363 54.1398 77.3882 54.1368C77.0401 54.1337 76.7048 54.2676 76.4544 54.5094L71.1441 59.8197C70.8952 60.0687 70.7554 60.4063 70.7554 60.7583C70.7554 61.1104 70.8952 61.448 71.1441 61.6969Z" fill="white"/>
<path id="Vector_3" d="M31.8694 55.8379C31.6204 55.589 31.2828 55.4492 30.9308 55.4492C30.5787 55.4492 30.2411 55.589 29.9922 55.8379L28.6646 57.1655C28.5378 57.288 28.4366 57.4345 28.3671 57.5964C28.2975 57.7584 28.2609 57.9326 28.2593 58.1089C28.2578 58.2852 28.2914 58.46 28.3581 58.6231C28.4249 58.7863 28.5235 58.9345 28.6481 59.0592C28.7728 59.1838 28.921 59.2824 29.0841 59.3491C29.2473 59.4159 29.4221 59.4495 29.5984 59.4479C29.7747 59.4464 29.9489 59.4098 30.1108 59.3402C30.2728 59.2706 30.4193 59.1695 30.5418 59.0427L31.8694 57.7151C32.1182 57.4662 32.2581 57.1285 32.2581 56.7765C32.2581 56.4245 32.1182 56.0869 31.8694 55.8379Z" fill="white"/>
<path id="Vector_4" d="M32.6441 61.6969C32.893 61.9458 33.2306 62.0856 33.5827 62.0856C33.9347 62.0856 34.2723 61.9458 34.5213 61.6969L39.8316 56.3866C40.0734 56.1362 40.2072 55.8009 40.2042 55.4528C40.2012 55.1047 40.0616 54.7717 39.8154 54.5256C39.5693 54.2794 39.2363 54.1398 38.8882 54.1368C38.5401 54.1337 38.2048 54.2676 37.9544 54.5094L32.6441 59.8197C32.3952 60.0687 32.2554 60.4063 32.2554 60.7583C32.2554 61.1104 32.3952 61.448 32.6441 61.6969Z" fill="white"/>
<path id="Vector_5" d="M91.9997 48.147C91.9997 47.2668 91.65 46.4226 91.0276 45.8001C90.4052 45.1777 89.561 44.828 88.6807 44.828H87.239L73.0246 30.6136C72.7757 30.3646 72.438 30.2247 72.086 30.2246H65.4481C65.2212 30.2234 64.9978 30.2803 64.7992 30.39C64.6005 30.4996 64.4333 30.6584 64.3135 30.851C64.1937 31.0437 64.1252 31.2638 64.1147 31.4905C64.1041 31.7171 64.1518 31.9427 64.2533 32.1456L66.9084 37.456C67.0192 37.6777 67.1898 37.8639 67.401 37.9937C67.6121 38.1234 67.8554 38.1915 68.1032 38.1901H71.4753L77.1653 44.828H37.5689V43.5005C37.5689 42.7963 37.2891 42.1209 36.7912 41.623C36.2933 41.125 35.6179 40.8453 34.9137 40.8453H33.2476L35.5244 38.1901H38.8965C39.1432 38.1902 39.385 38.1216 39.5949 37.9919C39.8048 37.8623 39.9744 37.6767 40.0846 37.456L42.7398 32.1456C42.841 31.9432 42.8887 31.7182 42.8785 31.4921C42.8682 31.2661 42.8004 31.0463 42.6813 30.8539C42.5622 30.6614 42.396 30.5025 42.1982 30.3924C42.0005 30.2823 41.7779 30.2245 41.5516 30.2246H34.9137C34.5616 30.2247 34.224 30.3646 33.9751 30.6136L23.7434 40.8453H17.6552C16.951 40.8453 16.2756 41.125 15.7777 41.623C15.2797 42.1209 15 42.7963 15 43.5005V51.466C15 52.1702 15.2797 52.8455 15.7777 53.3435C16.2756 53.8414 16.951 54.1211 17.6552 54.1211V56.1922C17.6534 57.6557 17.992 59.0997 18.6442 60.4099L20.6688 64.455C21.1142 65.3404 21.7971 66.0844 22.6411 66.604C23.4851 67.1235 24.457 67.3981 25.4481 67.397H46.384C47.5758 67.4015 48.7344 67.005 49.6735 66.2713C50.6126 65.5376 51.2777 64.5093 51.5616 63.3518L53.4998 55.608L55.4355 63.3518C55.7231 64.5078 56.3895 65.5341 57.3283 66.2673C58.2672 67.0004 59.4245 67.3981 60.6157 67.397H81.5543C82.5473 67.4009 83.5215 67.1263 84.3663 66.6044C85.2111 66.0825 85.8927 65.3342 86.3336 64.4444L88.3528 60.4086C89.0039 59.0983 89.3433 57.6553 89.3445 56.1922V51.3983C90.094 51.2453 90.7676 50.8381 91.2514 50.2457C91.7352 49.6533 91.9995 48.9119 91.9997 48.147ZM73.0936 35.9983C72.969 35.853 72.8144 35.7363 72.6405 35.6564C72.4666 35.5764 72.2774 35.535 72.086 35.535H68.9237L67.5961 32.8798H71.5364L83.4846 44.828H80.6622L73.0936 35.9983ZM35.4633 32.8798H39.4036L38.076 35.535H34.9137C34.7223 35.535 34.5331 35.5764 34.3592 35.6564C34.1853 35.7363 34.0307 35.853 33.9061 35.9983L29.7494 40.8453H27.4925L35.4633 32.8798ZM17.6552 43.5005H34.9137V51.466H17.6552V43.5005ZM48.9861 62.7146C48.843 63.2956 48.5085 63.8115 48.0365 64.1792C47.5644 64.547 46.9824 64.7451 46.384 64.7418H25.4481C24.9486 64.7417 24.4589 64.603 24.0335 64.3412C23.6081 64.0794 23.2637 63.7047 23.0385 63.2589L21.0219 59.2283C20.5532 58.2849 20.3096 57.2456 20.3103 56.1922V54.1211H34.9137C35.6179 54.1211 36.2933 53.8414 36.7912 53.3435C37.2891 52.8455 37.5689 52.1702 37.5689 51.466H51.7992L48.9861 62.7146ZM86.6894 56.1922C86.6875 57.2432 86.4426 58.2796 85.9738 59.2204L83.9546 63.2576C83.7332 63.7046 83.391 64.0806 82.9667 64.3429C82.5424 64.6053 82.0531 64.7435 81.5543 64.7418H60.6157C60.0173 64.7415 59.4361 64.5412 58.9646 64.1727C58.4932 63.8041 58.1584 63.2886 58.0136 62.7079L55.2005 51.466H86.6894V56.1922ZM88.6807 48.8108H37.5689V47.4832H88.6807C88.8568 47.4832 89.0256 47.5531 89.1501 47.6776C89.2746 47.8021 89.3445 47.971 89.3445 48.147C89.3445 48.3231 89.2746 48.4919 89.1501 48.6164C89.0256 48.7409 88.8568 48.8108 88.6807 48.8108Z" fill="white"/>
<path id="Vector_6" d="M21.6381 48.8114H25.6209C25.973 48.8114 26.3106 48.6715 26.5596 48.4226C26.8086 48.1736 26.9485 47.8359 26.9485 47.4838C26.9485 47.1317 26.8086 46.7941 26.5596 46.5451C26.3106 46.2961 25.973 46.1562 25.6209 46.1562H21.6381C21.286 46.1562 20.9484 46.2961 20.6994 46.5451C20.4504 46.7941 20.3105 47.1317 20.3105 47.4838C20.3105 47.8359 20.4504 48.1736 20.6994 48.4226C20.9484 48.6715 21.286 48.8114 21.6381 48.8114Z" fill="white"/>
<path id="Vector_7" d="M30.1874 48.5851C30.262 48.6352 30.3427 48.6754 30.4277 48.7046C30.5029 48.743 30.5834 48.7698 30.6666 48.7843C30.7544 48.7991 30.8431 48.808 30.9321 48.8108C31.0164 48.8086 31.1003 48.7997 31.1831 48.7843C31.2714 48.7719 31.3571 48.745 31.4366 48.7046C31.5181 48.6779 31.5944 48.6375 31.6623 48.5851C31.7383 48.5393 31.8094 48.4859 31.8747 48.4258C32.1215 48.1742 32.2598 47.8357 32.2598 47.4832C32.2598 47.1308 32.1215 46.7923 31.8747 46.5407C31.8084 46.4876 31.742 46.4345 31.6623 46.3813C31.5944 46.329 31.5181 46.2886 31.4366 46.2619C31.3571 46.2215 31.2714 46.1946 31.1831 46.1822C31.0132 46.1424 30.8365 46.1424 30.6666 46.1822C30.5834 46.1967 30.5029 46.2235 30.4277 46.2619C30.3427 46.2911 30.262 46.3313 30.1874 46.3813L29.9896 46.5407C29.7428 46.7923 29.6045 47.1308 29.6045 47.4832C29.6045 47.8357 29.7428 48.1742 29.9896 48.4258C30.0525 48.4826 30.1185 48.5358 30.1874 48.5851Z" fill="white"/>
</g>
<g id="Subtract">
<mask id="path-8-outside-1_977_6822" maskUnits="userSpaceOnUse" x="39.5449" y="3" width="27" height="20" fill="black">
<rect fill="white" x="39.5449" y="3" width="27" height="20"/>
<path fill-rule="evenodd" clip-rule="evenodd" d="M62.65 12.346C62.8024 12.0141 62.8786 11.6822 62.8786 11.3281C62.8786 9.75717 61.4055 8.49597 59.5769 8.49597C59.2468 8.49597 58.9166 8.54022 58.6118 8.62873C57.6467 6.46034 55.1832 5 52.4657 5C48.8339 5 45.8624 7.54454 45.8624 10.6865C45.8624 10.8192 45.8624 10.952 45.8878 11.0626C43.3481 11.6379 41.5449 13.6293 41.5449 15.9083C41.5449 18.6741 44.1608 20.931 47.3863 20.931H58.561C61.7865 20.931 64.4024 18.6741 64.4024 15.9083C64.4024 14.5807 63.7675 13.2974 62.65 12.346ZM58.561 20.0459H47.3863C44.7196 20.0459 42.5608 18.1873 42.5608 15.9083C42.5608 13.9169 44.237 12.2132 46.5228 11.8371C46.8021 11.7928 46.9799 11.5715 46.9291 11.3503C46.9037 11.129 46.8783 10.9077 46.8783 10.6865C46.8783 8.03132 49.3927 5.88506 52.4657 5.88506C54.9292 5.88506 57.1388 7.30114 57.8245 9.31465C57.8753 9.4474 57.9769 9.53591 58.1039 9.60229C58.2309 9.64654 58.4087 9.64654 58.5357 9.60229C58.8658 9.46953 59.2214 9.38103 59.5769 9.38103C60.8468 9.38103 61.8627 10.2661 61.8627 11.3281C61.8627 11.66 61.7611 11.9477 61.6087 12.2353C61.5071 12.4123 61.5325 12.6557 61.7357 12.7885C62.8024 13.585 63.4119 14.7135 63.4119 15.9083C63.3865 18.1873 61.2278 20.0459 58.561 20.0459Z"/>
</mask>
<path fill-rule="evenodd" clip-rule="evenodd" d="M62.65 12.346C62.8024 12.0141 62.8786 11.6822 62.8786 11.3281C62.8786 9.75717 61.4055 8.49597 59.5769 8.49597C59.2468 8.49597 58.9166 8.54022 58.6118 8.62873C57.6467 6.46034 55.1832 5 52.4657 5C48.8339 5 45.8624 7.54454 45.8624 10.6865C45.8624 10.8192 45.8624 10.952 45.8878 11.0626C43.3481 11.6379 41.5449 13.6293 41.5449 15.9083C41.5449 18.6741 44.1608 20.931 47.3863 20.931H58.561C61.7865 20.931 64.4024 18.6741 64.4024 15.9083C64.4024 14.5807 63.7675 13.2974 62.65 12.346ZM58.561 20.0459H47.3863C44.7196 20.0459 42.5608 18.1873 42.5608 15.9083C42.5608 13.9169 44.237 12.2132 46.5228 11.8371C46.8021 11.7928 46.9799 11.5715 46.9291 11.3503C46.9037 11.129 46.8783 10.9077 46.8783 10.6865C46.8783 8.03132 49.3927 5.88506 52.4657 5.88506C54.9292 5.88506 57.1388 7.30114 57.8245 9.31465C57.8753 9.4474 57.9769 9.53591 58.1039 9.60229C58.2309 9.64654 58.4087 9.64654 58.5357 9.60229C58.8658 9.46953 59.2214 9.38103 59.5769 9.38103C60.8468 9.38103 61.8627 10.2661 61.8627 11.3281C61.8627 11.66 61.7611 11.9477 61.6087 12.2353C61.5071 12.4123 61.5325 12.6557 61.7357 12.7885C62.8024 13.585 63.4119 14.7135 63.4119 15.9083C63.3865 18.1873 61.2278 20.0459 58.561 20.0459Z" fill="white"/>
<path d="M62.65 12.346L61.4763 11.8071L61.0683 12.6956L61.8127 13.3293L62.65 12.346ZM58.6118 8.62873L57.4319 9.15388L57.89 10.1832L58.972 9.86901L58.6118 8.62873ZM45.8878 11.0626L46.1732 12.3222L47.4364 12.0361L47.1466 10.7737L45.8878 11.0626ZM46.5228 11.8371L46.3207 10.5614L46.3131 10.5627L46.5228 11.8371ZM46.9291 11.3503L45.646 11.4976L45.6542 11.5691L45.6704 11.6392L46.9291 11.3503ZM57.8245 9.31465L56.602 9.73101L56.6097 9.75374L56.6183 9.77617L57.8245 9.31465ZM58.1039 9.60229L57.5056 10.7469L57.5895 10.7907L57.6789 10.8219L58.1039 9.60229ZM58.5357 9.60229L58.9607 10.8219L58.9893 10.8119L59.0175 10.8006L58.5357 9.60229ZM61.6087 12.2353L62.7289 12.8782L62.7397 12.8592L62.75 12.8399L61.6087 12.2353ZM61.7357 12.7885L62.5085 11.7537L62.476 11.7294L62.4422 11.7073L61.7357 12.7885ZM63.4119 15.9083L64.7034 15.9227L64.7034 15.9155V15.9083H63.4119ZM61.5871 11.3281C61.5871 11.4842 61.5562 11.633 61.4763 11.8071L63.8237 12.8849C64.0486 12.3951 64.1701 11.8801 64.1701 11.3281H61.5871ZM59.5769 9.78749C60.8859 9.78749 61.5871 10.6499 61.5871 11.3281H64.1701C64.1701 8.8645 61.9251 7.20445 59.5769 7.20445V9.78749ZM58.972 9.86901C59.1507 9.81711 59.3589 9.78749 59.5769 9.78749V7.20445C59.1346 7.20445 58.6825 7.26334 58.2517 7.38845L58.972 9.86901ZM52.4657 6.29152C54.7625 6.29152 56.7083 7.52811 57.4319 9.15388L59.7918 8.10357C58.5852 5.39258 55.604 3.70848 52.4657 3.70848V6.29152ZM47.154 10.6865C47.154 8.43418 49.357 6.29152 52.4657 6.29152V3.70848C48.3108 3.70848 44.5709 6.65489 44.5709 10.6865H47.154ZM47.1466 10.7737C47.1527 10.8 47.155 10.8177 47.1557 10.8236C47.1564 10.8295 47.156 10.8287 47.1555 10.8185C47.155 10.8083 47.1545 10.7931 47.1543 10.7701C47.154 10.7464 47.154 10.721 47.154 10.6865H44.5709C44.5709 10.7771 44.5643 11.0694 44.6291 11.3516L47.1466 10.7737ZM42.8364 15.9083C42.8364 14.3562 44.0923 12.7936 46.1732 12.3222L45.6025 9.80302C42.604 10.4822 40.2534 12.9024 40.2534 15.9083H42.8364ZM47.3863 19.6395C44.6856 19.6395 42.8364 17.7859 42.8364 15.9083H40.2534C40.2534 19.5623 43.6361 22.2225 47.3863 22.2225V19.6395ZM58.561 19.6395H47.3863V22.2225H58.561V19.6395ZM63.1109 15.9083C63.1109 17.7859 61.2617 19.6395 58.561 19.6395V22.2225C62.3112 22.2225 65.6939 19.5623 65.6939 15.9083H63.1109ZM61.8127 13.3293C62.6791 14.067 63.1109 15.0054 63.1109 15.9083H65.6939C65.6939 14.156 64.8558 12.5278 63.4873 11.3626L61.8127 13.3293ZM47.3863 21.3375H58.561V18.7544H47.3863V21.3375ZM41.2693 15.9083C41.2693 19.0784 44.1981 21.3375 47.3863 21.3375V18.7544C45.241 18.7544 43.8523 17.2962 43.8523 15.9083H41.2693ZM46.3131 10.5627C43.5646 11.015 41.2693 13.134 41.2693 15.9083H43.8523C43.8523 14.6999 44.9094 13.4114 46.7325 13.1114L46.3131 10.5627ZM45.6704 11.6392C45.595 11.311 45.7043 11.0191 45.8535 10.8381C45.9983 10.6627 46.177 10.5842 46.3207 10.5614L46.7248 13.1127C47.4941 12.9908 48.4577 12.2364 48.1879 11.0613L45.6704 11.6392ZM45.5868 10.6865C45.5868 10.9941 45.6221 11.289 45.646 11.4976L48.2122 11.203C48.1854 10.969 48.1699 10.8214 48.1699 10.6865H45.5868ZM52.4657 4.59354C48.8727 4.59354 45.5868 7.13896 45.5868 10.6865H48.1699C48.1699 8.92367 49.9126 7.17658 52.4657 7.17658V4.59354ZM59.0471 8.89829C58.1491 6.26147 55.3685 4.59354 52.4657 4.59354V7.17658C54.49 7.17658 56.1285 8.34082 56.602 9.73101L59.0471 8.89829ZM58.7022 8.45771C58.7194 8.46672 58.7763 8.49839 58.8431 8.56433C58.9151 8.63543 58.9848 8.73298 59.0308 8.85313L56.6183 9.77617C56.8204 10.3045 57.2135 10.5942 57.5056 10.7469L58.7022 8.45771ZM58.1106 8.3827C58.2108 8.34778 58.283 8.34396 58.3198 8.34396C58.3565 8.34396 58.4287 8.34778 58.5289 8.3827L57.6789 10.8219C58.0811 10.962 58.5585 10.962 58.9607 10.8219L58.1106 8.3827ZM59.5769 8.0895C59.0121 8.0895 58.49 8.22862 58.0538 8.40401L59.0175 10.8006C59.2416 10.7104 59.4306 10.6725 59.5769 10.6725V8.0895ZM63.1542 11.3281C63.1542 9.37405 61.3671 8.0895 59.5769 8.0895V10.6725C59.914 10.6725 60.1845 10.7902 60.3551 10.9366C60.5248 11.0822 60.5712 11.2272 60.5712 11.3281H63.1542ZM62.75 12.8399C62.9596 12.4442 63.1542 11.9444 63.1542 11.3281H60.5712C60.5712 11.3582 60.5672 11.3889 60.555 11.43C60.5416 11.4749 60.5166 11.538 60.4674 11.6307L62.75 12.8399ZM62.4422 11.7073C62.6412 11.8373 62.7813 12.0498 62.8264 12.2858C62.868 12.5033 62.8248 12.711 62.7289 12.8782L60.4886 11.5925C60.1025 12.2652 60.1633 13.3039 61.0292 13.8697L62.4422 11.7073ZM64.7034 15.9083C64.7034 14.2519 63.8557 12.7597 62.5085 11.7537L60.9629 13.8233C61.7491 14.4104 62.1204 15.1751 62.1204 15.9083H64.7034ZM58.561 21.3375C61.7544 21.3375 64.6682 19.0776 64.7034 15.9227L62.1205 15.8939C62.1048 17.297 60.7011 18.7544 58.561 18.7544V21.3375Z" fill="white" mask="url(#path-8-outside-1_977_6822)"/>
</g>
<path id="Vector 1" d="M13.6301 32.9209C14.3867 33.6774 15.6133 33.6774 16.3699 32.9209L28.6986 20.5921C29.4552 19.8355 29.4552 18.6089 28.6986 17.8524C27.9421 17.0958 26.7155 17.0958 25.9589 17.8524L15 28.8113L4.04109 17.8524C3.28453 17.0958 2.05791 17.0958 1.30136 17.8524C0.544802 18.6089 0.544802 19.8355 1.30136 20.5921L13.6301 32.9209ZM30.2672 11.0276H15.5166V14.9021H30.2672V11.0276ZM13.0627 13.4815V31.551H16.9373V13.4815H13.0627ZM15.5166 11.0276C14.1614 11.0276 13.0627 12.1262 13.0627 13.4815H16.9373C16.9373 14.2661 16.3012 14.9021 15.5166 14.9021V11.0276Z" fill="white"/>
<path id="Vector 2" d="M90.0632 29.5602C90.0632 30.6301 90.9306 31.4975 92.0005 31.4975C93.0704 31.4975 93.9378 30.6301 93.9378 29.5602L90.0632 29.5602ZM72.0445 12.9231C71.2879 13.6797 71.2879 14.9063 72.0445 15.6628L84.3733 27.9916C85.1298 28.7482 86.3564 28.7482 87.113 27.9916C87.8696 27.2351 87.8696 26.0084 87.113 25.2519L76.1541 14.293L87.113 3.33405C87.8696 2.5775 87.8696 1.35088 87.113 0.594326C86.3564 -0.16223 85.1298 -0.16223 84.3733 0.594326L72.0445 12.9231ZM93.9378 29.5602L93.9378 14.8096L90.0632 14.8096L90.0632 29.5602L93.9378 29.5602ZM91.4839 12.3557L73.4144 12.3557L73.4144 16.2302L91.4839 16.2302L91.4839 12.3557ZM93.9378 14.8096C93.9378 13.4543 92.8391 12.3557 91.4839 12.3557L91.4839 16.2302C90.6993 16.2302 90.0632 15.5942 90.0632 14.8096L93.9378 14.8096Z" fill="white"/>
</g>
</g>
</mask>
<g mask="url(#mask0_977_6822)">
<rect id="Rectangle 253" x="-2" y="-4" width="111" height="80" fill="url(#paint0_linear_977_6822)"/>
</g>
</g>
<defs>
<linearGradient id="paint0_linear_977_6822" x1="25.9745" y1="-22.8031" x2="118.261" y2="112.294" gradientUnits="userSpaceOnUse">
<stop stop-color="#40D1EC"/>
<stop offset="1" stop-color="#14328E"/>
</linearGradient>
</defs>
</svg>
