<svg width="57" height="50" viewBox="0 0 57 50" fill="none" xmlns="http://www.w3.org/2000/svg">
<g id="Group 94">
<path id="Vector" d="M8.18921 9.37598C9.05215 9.37598 9.75171 8.67642 9.75171 7.81348C9.75171 6.95053 9.05215 6.25098 8.18921 6.25098C7.32626 6.25098 6.62671 6.95053 6.62671 7.81348C6.62671 8.67642 7.32626 9.37598 8.18921 9.37598Z" fill="url(#paint0_linear_977_6757)"/>
<path id="Vector_2" d="M14.4385 9.37598C15.3014 9.37598 16.001 8.67642 16.001 7.81348C16.001 6.95053 15.3014 6.25098 14.4385 6.25098C13.5755 6.25098 12.876 6.95053 12.876 7.81348C12.876 8.67642 13.5755 9.37598 14.4385 9.37598Z" fill="url(#paint1_linear_977_6757)"/>
<path id="Vector_3" d="M20.6904 9.37598C21.5534 9.37598 22.2529 8.67642 22.2529 7.81348C22.2529 6.95053 21.5534 6.25098 20.6904 6.25098C19.8275 6.25098 19.1279 6.95053 19.1279 7.81348C19.1279 8.67642 19.8275 9.37598 20.6904 9.37598Z" fill="url(#paint2_linear_977_6757)"/>
<path id="Vector_4" d="M50.375 0H6.625C3.17188 0 0.375 2.79688 0.375 6.25V43.75C0.375 47.2031 3.17188 50 6.625 50H50.375C53.8281 50 56.625 47.2031 56.625 43.75V6.25C56.625 2.79688 53.8281 0 50.375 0ZM50.375 46.875H6.625C4.90625 46.875 3.5 45.4688 3.5 43.75V6.25C3.5 4.53125 4.90625 3.125 6.625 3.125H50.375C52.0938 3.125 53.5 4.53125 53.5 6.25V12.5H9.75C8.89062 12.5 8.1875 13.2031 8.1875 14.0625C8.1875 14.9219 8.89062 15.625 9.75 15.625H53.5V43.75C53.5 45.4688 52.0938 46.875 50.375 46.875Z" fill="url(#paint3_linear_977_6757)"/>
<path id="Vector_5" d="M30.063 9.37598H48.813C49.6724 9.37598 50.3755 8.67285 50.3755 7.81348C50.3755 6.9541 49.6724 6.25098 48.813 6.25098H30.063C29.2036 6.25098 28.5005 6.9541 28.5005 7.81348C28.5005 8.67285 29.2036 9.37598 30.063 9.37598Z" fill="url(#paint4_linear_977_6757)"/>
<path id="Vector_6" d="M29.969 20.8118C28.9221 20.1712 27.6409 20.1399 26.4534 20.7806L20.9221 24.2649C20.5627 24.4524 20.2502 24.7181 20.0002 25.0149H14.969C12.9377 25.0149 11.2971 26.6399 11.2971 28.6243V33.9056C11.2971 35.8899 12.9377 37.5149 14.969 37.5149H20.0002C20.2502 37.8118 20.5471 38.0618 20.8127 38.2024L26.5315 41.7962C27.0471 42.0774 27.6096 42.2024 28.1565 42.2024C28.7659 42.2024 29.3909 42.0306 29.9377 41.7024C30.969 41.0774 31.594 39.9837 31.594 38.7806V23.7337C31.594 22.5306 30.969 21.4368 29.9377 20.8118H29.969ZM14.4377 33.8899V28.6087C14.4377 28.3431 14.6877 28.1243 14.9846 28.1243H19.1252V34.3743H14.9846C14.6877 34.3743 14.4377 34.1556 14.4377 33.8899ZM28.5002 38.7649C28.5002 38.7649 28.5002 38.9212 28.3596 38.9993C28.2971 39.0306 28.1721 39.0774 28.1252 39.0618L22.5002 35.5306L22.3909 35.4524L22.2502 27.2493L22.2971 27.1087L28.0159 23.4681C28.0159 23.4681 28.1252 23.4212 28.1877 23.4212C28.2659 23.4212 28.3284 23.4524 28.3596 23.4681C28.5002 23.5462 28.5002 23.6712 28.5002 23.7024V38.7493V38.7649Z" fill="url(#paint5_linear_977_6757)"/>
<path id="Vector_7" d="M41.1736 20.3132C40.533 19.7351 39.5486 19.7976 38.9705 20.4382C38.3923 21.0789 38.4548 22.0632 39.0955 22.6414C41.5486 24.8289 42.9705 27.9695 42.9705 31.2351C42.9705 34.5007 41.5642 37.657 39.0955 39.8445C38.4548 40.4226 38.3923 41.407 38.9705 42.0476C39.283 42.3914 39.7048 42.5789 40.1423 42.5789C40.5173 42.5789 40.8767 42.4539 41.1736 42.1882C44.2986 39.407 46.0955 35.4226 46.0955 31.2351C46.0955 27.0476 44.2986 23.0789 41.1736 20.2976V20.3132Z" fill="url(#paint6_linear_977_6757)"/>
<path id="Vector_8" d="M36.4705 23.375C35.7986 22.8281 34.8142 22.9219 34.2673 23.5781C33.7205 24.2344 33.8142 25.2344 34.4705 25.7813C36.0955 27.1406 37.033 29.125 37.033 31.25C37.033 33.375 36.0955 35.375 34.4548 36.7344C33.7986 37.2813 33.7048 38.2656 34.2517 38.9375C34.5642 39.3125 35.0017 39.5 35.4548 39.5C35.7986 39.5 36.158 39.375 36.4548 39.1406C38.8142 37.1875 40.158 34.3125 40.158 31.25C40.158 28.1875 38.8142 25.3281 36.4705 23.375Z" fill="url(#paint7_linear_977_6757)"/>
</g>
<defs>
<linearGradient id="paint0_linear_977_6757" x1="8.18921" y1="6.25098" x2="10.5888" y2="8.38396" gradientUnits="userSpaceOnUse">
<stop stop-color="#41D1EC"/>
<stop offset="1" stop-color="#14318D"/>
</linearGradient>
<linearGradient id="paint1_linear_977_6757" x1="14.4385" y1="6.25098" x2="16.8381" y2="8.38396" gradientUnits="userSpaceOnUse">
<stop stop-color="#41D1EC"/>
<stop offset="1" stop-color="#14318D"/>
</linearGradient>
<linearGradient id="paint2_linear_977_6757" x1="20.6904" y1="6.25098" x2="23.09" y2="8.38396" gradientUnits="userSpaceOnUse">
<stop stop-color="#41D1EC"/>
<stop offset="1" stop-color="#14318D"/>
</linearGradient>
<linearGradient id="paint3_linear_977_6757" x1="28.5" y1="1.29619e-06" x2="67.1604" y2="38.6604" gradientUnits="userSpaceOnUse">
<stop stop-color="#41D1EC"/>
<stop offset="1" stop-color="#14318D"/>
</linearGradient>
<linearGradient id="paint4_linear_977_6757" x1="39.438" y1="6.25098" x2="40.1951" y2="10.9618" gradientUnits="userSpaceOnUse">
<stop stop-color="#41D1EC"/>
<stop offset="1" stop-color="#14318D"/>
</linearGradient>
<linearGradient id="paint5_linear_977_6757" x1="21.4456" y1="20.3154" x2="38.0577" y2="34.009" gradientUnits="userSpaceOnUse">
<stop stop-color="#41D1EC"/>
<stop offset="1" stop-color="#14318D"/>
</linearGradient>
<linearGradient id="paint6_linear_977_6757" x1="42.3344" y1="19.916" x2="51.8463" y2="22.7224" gradientUnits="userSpaceOnUse">
<stop stop-color="#41D1EC"/>
<stop offset="1" stop-color="#14318D"/>
</linearGradient>
<linearGradient id="paint7_linear_977_6757" x1="37.0266" y1="23.0186" x2="44.7537" y2="25.6285" gradientUnits="userSpaceOnUse">
<stop stop-color="#41D1EC"/>
<stop offset="1" stop-color="#14318D"/>
</linearGradient>
</defs>
</svg>
