<svg width="80" height="122" viewBox="0 0 80 122" fill="none" xmlns="http://www.w3.org/2000/svg">
<g id="alert-triangle">
<path id="Vector" d="M52.3089 19.6225L9.25305 91.5008C8.36534 93.0381 7.89564 94.7811 7.89066 96.5563C7.88569 98.3315 8.34563 100.077 9.22472 101.619C10.1038 103.162 11.3714 104.447 12.9014 105.347C14.4314 106.247 16.1705 106.731 17.9456 106.751H104.057C105.832 106.731 107.571 106.247 109.101 105.347C110.631 104.447 111.899 103.162 112.778 101.619C113.657 100.077 114.117 98.3315 114.112 96.5563C114.107 94.7811 113.637 93.0381 112.75 91.5008L69.6939 19.6225C68.7877 18.1285 67.5117 16.8933 65.9891 16.0361C64.4665 15.1789 62.7487 14.7285 61.0014 14.7285C59.2541 14.7285 57.5362 15.1789 56.0136 16.0361C54.4911 16.8933 53.2151 18.1285 52.3089 19.6225Z" stroke="#1A2552" stroke-width="10.1667" stroke-linecap="round" stroke-linejoin="round"/>
<path id="Vector_2" d="M61 45.75V66.0833" stroke="#1A2552" stroke-width="10.1667" stroke-linecap="round" stroke-linejoin="round"/>
<path id="Vector_3" d="M61 86.4172H61.0508" stroke="#1A2552" stroke-width="10.1667" stroke-linecap="round" stroke-linejoin="round"/>
</g>
</svg>
