<svg width="83" height="97" viewBox="0 0 83 97" fill="none" xmlns="http://www.w3.org/2000/svg">
<path id="Vector" d="M90.8092 20.0292L90.8087 20.0297C90.7439 20.0973 90.707 20.1542 90.6854 20.2118C90.6637 20.2695 90.6536 20.3377 90.6566 20.4331L90.6566 20.4336M90.8092 20.0292L90.5118 20.4382L90.6566 20.4336M90.8092 20.0292C90.8736 19.9614 90.9285 19.9218 90.9842 19.8978C91.0397 19.8738 91.1058 19.8611 91.1988 19.8611H92.5329C92.6262 19.8611 92.6919 19.8736 92.7471 19.8973C92.8023 19.9211 92.8572 19.9606 92.9224 20.0293C92.9868 20.097 93.0239 20.1542 93.0458 20.2121C93.0677 20.2699 93.078 20.3381 93.075 20.4331M90.8092 20.0292L93.075 20.4331M90.6566 20.4336L91.3257 39.1798L91.3258 39.1803C91.3356 39.4801 91.5753 39.712 91.8665 39.712C92.1572 39.712 92.3962 39.4805 92.4072 39.1799M90.6566 20.4336L92.5521 39.185L92.4073 39.1797M92.4072 39.1799C92.4072 39.1798 92.4073 39.1798 92.4073 39.1797M92.4072 39.1799L92.4073 39.1797M92.4072 39.1799L93.075 20.4336M92.4073 39.1797L93.075 20.4336M93.075 20.4336C93.075 20.4334 93.075 20.4332 93.075 20.4331M93.075 20.4336L93.075 20.4331M40.1868 30.1673L40.1868 30.1673C37.644 29.5277 35.1037 29.0659 32.5706 28.7724C36.252 25.9912 38.7163 20.8667 38.7163 15.0308C38.7163 11.0162 37.5276 7.74637 35.3667 5.47918C33.2051 3.2112 30.0851 1.96191 26.2537 1.96191C22.4222 1.96191 19.3022 3.21155 17.1406 5.47971C14.9798 7.74706 13.791 11.0169 13.791 15.0308C13.791 20.8545 16.2436 25.968 19.9115 28.7537C17.3568 29.0466 14.8186 29.5157 12.3028 30.1718L12.3028 30.1718C8.62994 31.1304 5.7689 32.6377 3.82444 34.6079C1.8774 36.5807 0.855059 39.0123 0.855059 41.8016V73.2841C0.855059 79.0384 5.12688 83.8302 10.7284 84.8015V122.019C10.7284 122.582 10.9493 123.124 11.3417 123.522C11.7357 123.922 12.2688 124.145 12.8258 124.145H39.6829C40.8435 124.145 41.7803 123.191 41.7803 122.019V84.8029C47.3818 83.8316 51.6536 79.0384 51.6536 73.2855V41.803C51.6536 36.2218 47.4388 31.9938 40.1868 30.1673ZM62.8724 56.0646L62.7465 56.1363L62.8724 56.0646C61.4276 53.5259 61.4276 50.4982 62.8724 47.9596L84.9522 9.1584C86.3969 6.62133 88.9804 5.10814 91.8665 5.10814C94.7526 5.10814 97.3374 6.62136 98.7808 9.15839L98.9067 9.08671L98.7808 9.1584L120.861 47.9596C122.304 50.4968 122.304 53.5259 120.859 56.0646C119.414 58.6017 116.831 60.1149 113.945 60.1149H69.7867C66.9006 60.1149 64.3158 58.6017 62.8724 56.0646ZM13.3502 34.2915L13.3136 34.1512L13.3502 34.2914C21.7592 32.0967 30.4482 32.0977 39.1776 34.2959L39.213 34.1554L39.1776 34.2959C40.7374 34.6886 42.8151 35.391 44.4998 36.5871C46.1816 37.7812 47.4589 39.4568 47.4589 41.803L47.4576 73.2855C47.4576 76.6907 45.055 79.5745 41.7803 80.455V51.1527C41.7803 49.9803 40.8435 49.0268 39.6829 49.0268C38.5223 49.0268 37.5856 49.9803 37.5856 51.1527V82.8569V119.895H28.7234V90.3163C28.7234 89.1439 27.7866 88.1904 26.626 88.1904C25.4654 88.1904 24.5287 89.1439 24.5287 90.3163V119.895H14.9232V82.8583V51.1527C14.9232 49.9803 13.9864 49.0268 12.8258 49.0268C11.6652 49.0268 10.7284 49.9803 10.7284 51.1527V80.4551C7.45374 79.5758 5.05115 76.6908 5.05115 73.2855V41.803C5.05115 39.6049 6.16184 37.9812 7.75863 36.7765C9.35913 35.569 11.4401 34.7898 13.3502 34.2915ZM17.9858 15.0322C17.9858 11.17 19.2889 8.9771 20.955 7.74385C22.6292 6.50455 24.6955 6.21499 26.2523 6.21499C27.8091 6.21499 29.8754 6.50421 31.5497 7.74333C33.2157 8.9764 34.5188 11.1693 34.5188 15.0322C34.5188 18.2697 33.5831 21.1994 32.0793 23.316C30.5753 25.4331 28.5121 26.7267 26.2523 26.7267C23.9932 26.7267 21.93 25.4331 20.4258 23.316C18.9219 21.1994 17.9858 18.2696 17.9858 15.0322ZM124.494 45.8353L102.414 7.03413C100.214 3.16565 96.2693 0.855059 91.8651 0.855059C87.4609 0.855059 83.5166 3.16565 81.3162 7.03415L59.2364 45.8353C57.0347 49.7035 57.0347 54.322 59.2364 58.1903C61.4368 62.0573 65.3811 64.3693 69.7853 64.3693H113.944C118.348 64.3693 122.292 62.0588 124.492 58.1903C126.696 54.3221 126.696 49.7021 124.494 45.8353ZM91.8651 43.9637C94.4292 43.9637 96.507 41.9275 96.5991 39.3323L97.2668 20.5856C97.2668 20.5856 97.2668 20.5856 97.2668 20.5856C97.3149 19.2532 96.8556 18.0374 95.9437 17.0778C95.0304 16.1166 93.8493 15.608 92.5329 15.608H91.1988C89.8823 15.608 88.7013 16.1166 87.7879 17.0778C86.8746 18.0388 86.4167 19.2533 86.4634 20.5855L87.1312 39.3324C87.2232 41.9275 89.3011 43.9637 91.8651 43.9637ZM91.8651 45.8345C88.8414 45.8345 86.385 48.3298 86.385 51.3924C86.385 54.4551 88.8414 56.9504 91.8651 56.9504C94.8888 56.9504 97.3452 54.4551 97.3452 51.3924C97.3452 48.3298 94.8888 45.8345 91.8651 45.8345ZM91.8651 52.6973C91.1598 52.6973 90.5811 52.1145 90.5811 51.3924C90.5811 50.6716 91.1586 50.0876 91.8651 50.0876C92.5705 50.0876 93.1491 50.6704 93.1491 51.3924C93.1491 52.1132 92.5717 52.6973 91.8651 52.6973Z" fill="#1A2552" stroke="#1A2552" stroke-width="0.289882"/>
</svg>
