<svg width="57" height="50" viewBox="0 0 57 50" fill="none" xmlns="http://www.w3.org/2000/svg">
<g id="Mask group">
<mask id="mask0_977_6775" style="mask-type:alpha" maskUnits="userSpaceOnUse" x="0" y="0" width="57" height="50">
<g id="Group">
<path id="Vector" d="M7.68464 0.00158335C7.37647 0.0144584 7.07623 0.103171 6.81054 0.259857C6.54486 0.416543 6.32194 0.636361 6.16154 0.899823L0.537799 10.2728C0.406524 10.4893 0.320461 10.7301 0.284801 10.9808C0.249142 11.2314 0.264624 11.4867 0.330315 11.7312C0.396006 11.9758 0.510545 12.2044 0.667021 12.4035C0.823498 12.6025 1.01867 12.7678 1.24077 12.8894L19.3422 22.7114C19.5586 22.8506 19.8014 22.9438 20.0554 22.9851C20.3094 23.0264 20.5692 23.015 20.8186 22.9516C21.068 22.8881 21.3016 22.774 21.505 22.6164C21.7084 22.4587 21.8771 22.2609 22.0007 22.0351C22.1244 21.8094 22.2002 21.5607 22.2235 21.3044C22.2468 21.0481 22.2171 20.7898 22.1362 20.5455C22.0553 20.3012 21.925 20.0762 21.7534 19.8844C21.5818 19.6926 21.3725 19.5383 21.1387 19.4309L10.6918 13.7486L14.1285 8.00763L47.6562 28.7062L45.2349 32.4944L26.8796 22.5162C26.6588 22.3948 26.4158 22.3193 26.1651 22.294C25.9145 22.2687 25.6613 22.2941 25.4207 22.3689C25.1801 22.4436 24.9571 22.566 24.7649 22.7289C24.5727 22.8918 24.4152 23.0917 24.302 23.3168L12.332 47.2763C12.1116 47.7214 12.0766 48.2358 12.2345 48.7067C12.3925 49.1776 12.7307 49.5667 13.1749 49.7888C13.6192 50.011 14.1334 50.048 14.6049 49.8918C15.0764 49.7357 15.4668 49.399 15.6907 48.9556L26.8015 26.734L31.1755 29.1163L41.0756 48.9556C41.1853 49.1771 41.3377 49.3748 41.5239 49.5373C41.7102 49.6998 41.9267 49.8239 42.161 49.9025C42.3953 49.9811 42.6429 50.0127 42.8895 49.9954C43.136 49.9781 43.3768 49.9123 43.5978 49.8018C43.8189 49.6912 44.016 49.5381 44.1778 49.3513C44.3395 49.1644 44.4628 48.9474 44.5405 48.7127C44.6182 48.4781 44.6488 48.2304 44.6306 47.9839C44.6124 47.7374 44.5456 47.497 44.4342 47.2763L36.9164 32.2406L44.981 36.6341C45.3049 36.8121 45.6742 36.8904 46.0425 36.8591C46.4108 36.8279 46.7616 36.6884 47.0509 36.4584L50.7805 38.7821C51.2027 39.0429 51.7112 39.1257 52.1944 39.0122C52.6776 38.8987 53.096 38.5983 53.358 38.1768L56.4628 33.1388C56.7175 32.7182 56.7968 32.2144 56.6836 31.7359C56.5703 31.2575 56.2737 30.8426 55.8575 30.5808L52.1278 28.2571V28.2375C52.149 27.8965 52.0764 27.5561 51.9181 27.2532C51.7598 26.9504 51.5217 26.6965 51.2296 26.5192L8.73909 0.274961C8.42241 0.0814795 8.05544 -0.0136633 7.68464 0.00158335ZM8.38761 4.45373L10.9456 6.03541L7.39174 11.9521L4.75561 10.5266L8.38761 4.45373ZM50.3118 31.5181L52.3036 32.7678L51.1515 34.6229L49.1402 33.3536L50.3118 31.5181Z" fill="white"/>
</g>
</mask>
<g mask="url(#mask0_977_6775)">
<rect id="Rectangle 253" x="-6.02002" width="69.7762" height="50.2892" fill="url(#paint0_linear_977_6775)"/>
</g>
</g>
<defs>
<linearGradient id="paint0_linear_977_6775" x1="11.5652" y1="-11.8199" x2="69.578" y2="73.1038" gradientUnits="userSpaceOnUse">
<stop stop-color="#40D1EC"/>
<stop offset="1" stop-color="#14328E"/>
</linearGradient>
</defs>
</svg>
