<svg width="128" height="67" viewBox="0 0 128 67" fill="none" xmlns="http://www.w3.org/2000/svg">
<path id="Vector" d="M0 37.4814H12.572M3.89132 58.8204V7.77196M3.89132 16.3783C4.43012 6.23933 19.5165 5.06038 19.5165 16.7909V28.993M55.9752 58.7614V36.9509M55.9752 45.5452C55.9752 35.3593 71.5405 34.3572 70.9418 45.9583V58.7025M65.6736 29.6414V7.83091M65.6736 16.4252C67.0505 8.24353 72.613 8.24352 78.3653 8.24352C84.4118 8.24353 90.3984 7.53616 89.9195 16.8383V17.3804M89.9195 21.212V29.5825M89.9195 21.212C89.3807 24.3165 87.8061 29.6161 80.8797 28.9341C72.9174 28.9341 72.7977 17.793 80.5803 17.3804H89.9195M89.9195 21.212V17.3804M99.7975 58.6435V36.833M99.7975 44.7395C100.995 37.7172 106.203 37.4814 110.813 37.4814M51.6816 36.833L51.6816 58.6435M51.6816 50.0492C51.6816 60.2351 36.1163 61.2372 36.715 49.6362L36.715 36.8919M59.7037 7.83091V29.6414M59.7037 21.0471C59.7037 31.233 44.1385 32.2351 44.7371 20.6341L44.7371 7.88984M94.4095 58.7614V0.285645M90.3386 0.639329H95.0082M110.274 37.1278L117.24 55.3013C117.266 55.3679 117.283 55.4367 117.304 55.5048C117.513 56.1783 118.584 57.3527 119.494 57.4646M126.857 37.0099L118.476 61.3551C117.877 63.713 115.842 65.7172 111.591 65.7172H109.915M41.1882 18.0839C41.1882 4.58499 22.3901 5.82671 22.6894 17.9109C22.0907 30.8204 37.7758 32.353 40.7092 23.6288M23.2919 17.9699L41.7868 18.0878M33.2858 47.6793C33.5458 53.0123 30.1727 58.7025 22.5098 58.7025C17.0874 58.7025 12.093 54.812 12.093 47.6793C12.093 42.3402 15.9844 36.9509 22.5098 36.9509C28.3169 36.9509 32.9266 40.3109 33.2858 47.6793ZM94.4095 47.5905C94.659 52.938 92.1265 58.6435 84.7715 58.6435C79.567 58.6435 74.7733 54.7425 74.7733 47.5905C74.7733 42.2369 78.5082 36.833 84.7715 36.833C90.3452 36.833 94.0647 40.2021 94.4095 47.5905Z" stroke="url(#paint0_linear_359_6182)"/>
<defs>
<linearGradient id="paint0_linear_359_6182" x1="-2.26245e-07" y1="19.9151" x2="124.455" y2="23.4175" gradientUnits="userSpaceOnUse">
<stop stop-color="#72BBFF"/>
<stop offset="1" stop-color="#0672C2"/>
</linearGradient>
</defs>
</svg>
